# xmcd CD database file
#
# Track frame offsets:
#	150
#	19837
#	39839
#	60005
#	78261
#	91821
#	114393
#	139691
#	155497
#	172384
#
# Disc length: 2497 seconds
#
# Revision: 2
# Processed by: cddbd v1.4b41PL1 Copyright (c) Steve Scherf et al.
# Submitted via: Feurio! 1.51.12ß - http://www.feurio.com
#
DISCID=6f09bf0a
DTITLE=Joe Egan - Out Of Nowhere
DYEAR=1900
DGENRE=
TTITLE0=Back On The Road
TTITLE1=Ask For No Favours
TTITLE2=Natural High
TTITLE3=Why Let It Bother You
TTITLE4=The Last Farewell
TTITLE5=Freeze
TTITLE6=Pride
TTITLE7=No Time For Sarrow
TTITLE8=Leaving It All Behind
TTITLE9=Out Of Nowhere
EXTD=
EXTT0=
EXTT1=
EXTT2=
EXTT3=
EXTT4=
EXTT5=
EXTT6=
EXTT7=
EXTT8=
EXTT9=
PLAYORDER=
